<svg width="50" height="50" viewBox="0 0 50 50" fill="none" xmlns="http://www.w3.org/2000/svg">
<path d="M0 13C0 5.8203 5.8203 0 13 0H37C44.1797 0 50 5.8203 50 13V37C50 44.1797 44.1797 50 37 50H13C5.8203 50 0 44.1797 0 37V13Z" fill="#2FCA7C"/>
<path d="M10.1426 26.7397L9.21973 32H6.21533L8.80957 17.0703L14.0391 17.0806C15.6523 17.0806 16.9204 17.5283 17.8433 18.4238C18.7661 19.3193 19.1694 20.4883 19.0532 21.9307C18.9438 23.3936 18.332 24.5625 17.2178 25.4375C16.1104 26.3125 14.6953 26.75 12.9727 26.75L10.1426 26.7397ZM10.563 24.248L13.0649 24.2686C13.8716 24.2686 14.5415 24.0601 15.0747 23.6431C15.6079 23.2261 15.9258 22.6621 16.0283 21.9512C16.1309 21.2402 16.0146 20.6729 15.6797 20.249C15.3516 19.8252 14.8628 19.5996 14.2134 19.5723L11.3833 19.562L10.563 24.248ZM26.4237 17.0703L28.2592 27.8677L33.827 17.0703H37.8261L35.2318 32H32.2172L32.9555 27.7446L34.4115 21.1001L28.6898 32H26.6288L24.6293 20.7207L23.6654 28.0728L22.9784 32H19.974L22.5683 17.0703H26.4237ZM42.573 27.248C42.3465 27.209 42.1609 27.1895 42.0164 27.1895C41.4266 27.1738 40.9598 27.3945 40.616 27.8516L39.8836 32H38.2312L39.3328 25.6602L40.8855 25.6543L40.7332 26.4277C41.1316 25.8301 41.6238 25.5312 42.2098 25.5312C42.3738 25.5312 42.5652 25.5586 42.784 25.6133L42.573 27.248Z" fill="white"/>
<path d="M25.5 5C36.0682 5 41 12 41 12H25.5H10C10 12 14.9318 5 25.5 5Z" fill="#F9F9F9"/>
<path d="M21.5 44C10.9318 44 6 37 6 37L21.5 37L37 37C37 37 32.0682 44 21.5 44Z" fill="#F9F9F9"/>
</svg>
